<svg xmlns="http://www.w3.org/2000/svg" xmlns:xlink="http://www.w3.org/1999/xlink" xmlns:svgjs="http://svgjs.dev/svgjs" version="1.1" viewBox="0 70.76 229.99 36.11"><g><svg xmlns="http://www.w3.org/2000/svg" xmlns:xlink="http://www.w3.org/1999/xlink" xmlns:svgjs="http://svgjs.com/svgjs" viewBox="0 0 395.52 62.094024580292924" height="62.094024580292924" width="230" version="1.1" x="0" y="57.767987709853536" viewbox="0 0 230 177.63"><g><svg viewBox="0 0 535.9562096397956 84.14158084378563" height="62.094024580292924" width="395.52"><g><rect width="5.490574959916077" height="73.06070695553021" x="120.57240180051811" y="5.540436944127713" fill="#332885" opacity="1" stroke-width="0" stroke="transparent" fill-opacity="1" class="rect-o-0" data-fill-palette-color="primary" rx="1%" id="o-0" data-palette-color="#332885"/></g><g transform="matrix(1,0,0,1,140.43620963979563,11.628829190421897)"><svg viewBox="0 0 395.52 60.88392246294184" height="60.88392246294184" width="395.52"><g><svg viewBox="0 0 395.52 60.88392246294184" height="60.88392246294184" width="395.52"><g><svg viewBox="0 0 395.52 60.88392246294184" height="60.88392246294184" width="395.52"><g transform="matrix(1,0,0,1,0,0)"><svg width="395.52" viewBox="2.4000000953674316 -33.25 219.23001098632812 33.75" height="60.88392246294184" data-palette-color="#332885"><path d="M5.1 0L2.4 0 2.4-32.75 5.05-32.75 12.1-14.4 12.85-14.4 19.9-32.75 22.55-32.75 22.55 0 19.85 0 19.85-25.4 19.65-25.4 14.4-11.85 10.55-11.85 5.3-25.45 5.1-25.45 5.1 0ZM43.45-8.95L47.95-8.95 47.95-6.35 43.45-6.35 43.45 0.5 40.7 0.5 40.7-6.35 27.15-6.35 27.15-8.7 35.35-31.7 38.2-31.7 30.25-8.95 40.7-8.95 40.7-19.45 43.45-19.45 43.45-8.95ZM71.3 0L54.1 0 54.1-32.75 71.15-32.75 71.15-30.3 56.85-30.3 56.85-17.9 69.8-17.9 69.8-15.45 56.85-15.45 56.85-2.45 71.3-2.45 71.3 0ZM86.32-15.73Q81.84-16.8 79.77-18.88 77.69-20.95 77.69-24.9 77.69-28.85 80.42-31.05 83.14-33.25 87.44-33.25 91.74-33.25 96.19-31.7L96.19-31.7 95.49-29.15Q91.34-30.65 87.87-30.65 84.39-30.65 82.54-29.18 80.69-27.7 80.69-24.9 80.69-22.1 82.19-20.65 83.69-19.2 88.17-18.03 92.64-16.85 94.64-14.93 96.64-13 96.64-8.72 96.64-4.45 93.77-1.98 90.89 0.5 86.34 0.5L86.34 0.5Q82.94 0.5 77.74-0.95L77.74-0.95 78.39-3.5Q83.49-2.1 86.59-2.1 89.69-2.1 91.69-3.83 93.69-5.55 93.69-8.65 93.69-11.75 92.24-13.2 90.79-14.65 86.32-15.73ZM111.04-30.2L102.39-30.2 102.39-32.75 122.49-32.75 122.49-30.2 113.79-30.2 113.79 0 111.04 0 111.04-30.2ZM128.74 0L125.84 0 135.24-32.75 140.04-32.75 149.09 0 146.14 0 144.09-7.55 130.84-7.55 128.74 0ZM131.54-10.05L143.44-10.05 138.04-30.25 137.19-30.25 131.54-10.05ZM161.04-30.2L152.39-30.2 152.39-32.75 172.49-32.75 172.49-30.2 163.79-30.2 163.79 0 161.04 0 161.04-30.2ZM196.28 0L179.08 0 179.08-32.75 196.13-32.75 196.13-30.3 181.83-30.3 181.83-17.9 194.78-17.9 194.78-15.45 181.83-15.45 181.83-2.45 196.28-2.45 196.28 0ZM211.31-15.73Q206.83-16.8 204.76-18.88 202.68-20.95 202.68-24.9 202.68-28.85 205.41-31.05 208.13-33.25 212.43-33.25 216.73-33.25 221.18-31.7L221.18-31.7 220.48-29.15Q216.33-30.65 212.86-30.65 209.38-30.65 207.53-29.18 205.68-27.7 205.68-24.9 205.68-22.1 207.18-20.65 208.68-19.2 213.16-18.03 217.63-16.85 219.63-14.93 221.63-13 221.63-8.72 221.63-4.45 218.76-1.98 215.88 0.5 211.33 0.5L211.33 0.5Q207.93 0.5 202.73-0.95L202.73-0.95 203.38-3.5Q208.48-2.1 211.58-2.1 214.68-2.1 216.68-3.83 218.68-5.55 218.68-8.65 218.68-11.75 217.23-13.2 215.78-14.65 211.31-15.73Z" opacity="1" transform="matrix(1,0,0,1,0,0)" fill="#332885" class="undefined-text-0" data-fill-palette-color="primary" id="text-0"/></svg></g></svg></g></svg></g></svg></g><g><svg viewBox="0 0 106.19916892115666 84.14158084378563" height="84.14158084378563" width="106.19916892115666"><g><svg xmlns="http://www.w3.org/2000/svg" xmlns:xlink="http://www.w3.org/1999/xlink" version="1.1" x="0" y="0" viewBox="11.873929023742676 24.32900047302246 120.33450317382812 95.34100341796875" enable-background="new 0 0 144.083 144" xml:space="preserve" height="84.14158084378563" width="106.19916892115666" class="icon-icon-0" data-fill-palette-color="accent" id="icon-0"><path d="M132.123 84.01l-10.002-40.911c-0.328-1.343-1.531-2.288-2.914-2.288H50.291V27.329c0-1.657-1.343-3-3-3h-14c-1.657 0-3 1.343-3 3v13.482h-5.416c-1.382 0-2.586 0.945-2.914 2.288L11.96 84.01c-0.219 0.895-0.015 1.84 0.554 2.564s1.439 1.147 2.36 1.147h1.733v28.949c0 1.657 1.343 3 3 3h33.275 9.746 18.824 9.746 33.275c1.657 0 3-1.343 3-3V87.722h1.734c0.921 0 1.791-0.423 2.359-1.147C132.137 85.85 132.341 84.904 132.123 84.01zM125.386 81.722H94.199V67.257c0-0.707-0.25-1.391-0.705-1.932l-7.123-8.46h32.938L125.386 81.722zM72.217 49.369l15.981 18.982v45.319h-4.996V86.603c0-1.657-1.343-3-3-3H63.878c-1.657 0-3 1.343-3 3v27.068h-4.996V68.369L72.217 49.369zM66.878 112.86V89.603h10.324v23.258H66.878zM117.842 50.864H81.32l-3.412-4.053h38.944L117.842 50.864zM36.291 30.329h8v10.482h-8V30.329zM66.504 46.812l-3.484 4.053H26.239l0.991-4.053H66.504zM24.772 56.864h33.089l-7.254 8.437c-0.468 0.544-0.725 1.238-0.725 1.956v14.465H18.696L24.772 56.864zM22.607 87.722h27.275v25.949h-4.638v-12.537c0-5.24-4.264-9.504-9.505-9.504-5.24 0-9.504 4.264-9.504 9.504v12.537h-3.629V87.722zM39.245 113.671h-7.009v-12.537c0-1.933 1.572-3.504 3.504-3.504 1.933 0 3.505 1.571 3.505 3.504V113.671zM111.212 113.671h-7.006v-12.537c0-1.933 1.571-3.504 3.502-3.504 1.932 0 3.504 1.571 3.504 3.504V113.671zM121.474 113.671h-4.262v-12.537c0-5.24-4.264-9.504-9.504-9.504-5.239 0-9.502 4.264-9.502 9.504v12.537h-4.008V87.722h27.275V113.671z" fill="#332885" data-fill-palette-color="accent"/></svg></g></svg></g></svg></g><defs/></svg></g></svg>